<mxfile host="app.diagrams.net" modified="2022-11-29T11:15:22.047Z" agent="5.0 (X11; Linux x86_64) AppleWebKit/537.36 (KHTML, like Gecko) Chrome/107.0.0.0 Safari/537.36" etag="w-JL3mjq4POanmm2Kk48" version="20.6.0" type="github">
  <diagram id="C5RBs43oDa-KdzZeNtuy" name="Page-1">
    <mxGraphModel dx="2500" dy="941" grid="1" gridSize="10" guides="1" tooltips="1" connect="1" arrows="1" fold="1" page="1" pageScale="1" pageWidth="827" pageHeight="1169" math="0" shadow="0">
      <root>
        <mxCell id="WIyWlLk6GJQsqaUBKTNV-0" />
        <mxCell id="WIyWlLk6GJQsqaUBKTNV-1" parent="WIyWlLk6GJQsqaUBKTNV-0" />
        <mxCell id="KQqe6mfhrijCWGsZN7re-0" value="&lt;p style=&quot;margin:0px;margin-top:4px;text-align:center;&quot;&gt;&lt;i&gt;&amp;lt;&amp;lt;Interface&amp;gt;&amp;gt;&lt;/i&gt;&lt;br/&gt;&lt;b&gt;Interface&lt;/b&gt;&lt;/p&gt;&lt;hr size=&quot;1&quot;/&gt;&lt;p style=&quot;margin:0px;margin-left:4px;&quot;&gt;+ field1: Type&lt;br/&gt;+ field2: Type&lt;/p&gt;&lt;hr size=&quot;1&quot;/&gt;&lt;p style=&quot;margin:0px;margin-left:4px;&quot;&gt;+ method1(Type): Type&lt;br/&gt;+ method2(Type, Type): Type&lt;/p&gt;" style="verticalAlign=top;align=left;overflow=fill;fontSize=12;fontFamily=Helvetica;html=1;rounded=0;shadow=0;comic=0;labelBackgroundColor=none;strokeWidth=1" parent="WIyWlLk6GJQsqaUBKTNV-1" vertex="1">
          <mxGeometry x="260" y="100" width="190" height="140" as="geometry" />
        </mxCell>
        <mxCell id="KQqe6mfhrijCWGsZN7re-1" value="Job" style="swimlane;fontStyle=2;align=center;verticalAlign=top;childLayout=stackLayout;horizontal=1;startSize=26;horizontalStack=0;resizeParent=1;resizeLast=0;collapsible=1;marginBottom=0;rounded=0;shadow=0;strokeWidth=1;" parent="WIyWlLk6GJQsqaUBKTNV-1" vertex="1">
          <mxGeometry x="-220" y="810" width="320" height="268" as="geometry">
            <mxRectangle x="230" y="140" width="160" height="26" as="alternateBounds" />
          </mxGeometry>
        </mxCell>
        <mxCell id="KQqe6mfhrijCWGsZN7re-2" value="-targetInstance: AxiosInstance" style="text;align=left;verticalAlign=top;spacingLeft=4;spacingRight=4;overflow=hidden;rotatable=0;points=[[0,0.5],[1,0.5]];portConstraint=eastwest;" parent="KQqe6mfhrijCWGsZN7re-1" vertex="1">
          <mxGeometry y="26" width="320" height="26" as="geometry" />
        </mxCell>
        <mxCell id="KQqe6mfhrijCWGsZN7re-3" value="-sourceInstance: AxiosInstance" style="text;align=left;verticalAlign=top;spacingLeft=4;spacingRight=4;overflow=hidden;rotatable=0;points=[[0,0.5],[1,0.5]];portConstraint=eastwest;" parent="KQqe6mfhrijCWGsZN7re-1" vertex="1">
          <mxGeometry y="52" width="320" height="26" as="geometry" />
        </mxCell>
        <mxCell id="KQqe6mfhrijCWGsZN7re-4" value="-objectSteps: MigrationObjectStep[]&#xa;" style="text;align=left;verticalAlign=top;spacingLeft=4;spacingRight=4;overflow=hidden;rotatable=0;points=[[0,0.5],[1,0.5]];portConstraint=eastwest;" parent="KQqe6mfhrijCWGsZN7re-1" vertex="1">
          <mxGeometry y="78" width="320" height="26" as="geometry" />
        </mxCell>
        <mxCell id="KQqe6mfhrijCWGsZN7re-5" value="-disableAutomationManager: DisableAutomationManager&#xa;" style="text;align=left;verticalAlign=top;spacingLeft=4;spacingRight=4;overflow=hidden;rotatable=0;points=[[0,0.5],[1,0.5]];portConstraint=eastwest;" parent="KQqe6mfhrijCWGsZN7re-1" vertex="1">
          <mxGeometry y="104" width="320" height="26" as="geometry" />
        </mxCell>
        <mxCell id="KQqe6mfhrijCWGsZN7re-6" value="" style="line;html=1;strokeWidth=1;align=left;verticalAlign=middle;spacingTop=-1;spacingLeft=3;spacingRight=3;rotatable=0;labelPosition=right;points=[];portConstraint=eastwest;" parent="KQqe6mfhrijCWGsZN7re-1" vertex="1">
          <mxGeometry y="130" width="320" height="8" as="geometry" />
        </mxCell>
        <mxCell id="KQqe6mfhrijCWGsZN7re-7" value="+execute(payload) : void" style="text;align=left;verticalAlign=top;spacingLeft=4;spacingRight=4;overflow=hidden;rotatable=0;points=[[0,0.5],[1,0.5]];portConstraint=eastwest;" parent="KQqe6mfhrijCWGsZN7re-1" vertex="1">
          <mxGeometry y="138" width="320" height="26" as="geometry" />
        </mxCell>
        <mxCell id="KQqe6mfhrijCWGsZN7re-8" value="-initInstance(organisationId): AxiosInstance" style="text;align=left;verticalAlign=top;spacingLeft=4;spacingRight=4;overflow=hidden;rotatable=0;points=[[0,0.5],[1,0.5]];portConstraint=eastwest;" parent="KQqe6mfhrijCWGsZN7re-1" vertex="1">
          <mxGeometry y="164" width="320" height="26" as="geometry" />
        </mxCell>
        <mxCell id="KQqe6mfhrijCWGsZN7re-9" value="-createSteps(objectSettings) : Steps[]" style="text;align=left;verticalAlign=top;spacingLeft=4;spacingRight=4;overflow=hidden;rotatable=0;points=[[0,0.5],[1,0.5]];portConstraint=eastwest;" parent="KQqe6mfhrijCWGsZN7re-1" vertex="1">
          <mxGeometry y="190" width="320" height="26" as="geometry" />
        </mxCell>
        <mxCell id="KQqe6mfhrijCWGsZN7re-10" value="-migrateObject()" style="text;align=left;verticalAlign=top;spacingLeft=4;spacingRight=4;overflow=hidden;rotatable=0;points=[[0,0.5],[1,0.5]];portConstraint=eastwest;" parent="KQqe6mfhrijCWGsZN7re-1" vertex="1">
          <mxGeometry y="216" width="320" height="26" as="geometry" />
        </mxCell>
        <mxCell id="KQqe6mfhrijCWGsZN7re-11" value="-saveJobInDatabase()" style="text;align=left;verticalAlign=top;spacingLeft=4;spacingRight=4;overflow=hidden;rotatable=0;points=[[0,0.5],[1,0.5]];portConstraint=eastwest;" parent="KQqe6mfhrijCWGsZN7re-1" vertex="1">
          <mxGeometry y="242" width="320" height="26" as="geometry" />
        </mxCell>
        <mxCell id="KQqe6mfhrijCWGsZN7re-12" value="SequenceStepCreater" style="swimlane;fontStyle=0;align=center;verticalAlign=top;childLayout=stackLayout;horizontal=1;startSize=40;horizontalStack=0;resizeParent=1;resizeLast=0;collapsible=1;marginBottom=0;rounded=0;shadow=0;strokeWidth=1;" parent="WIyWlLk6GJQsqaUBKTNV-1" vertex="1">
          <mxGeometry x="220.06" y="810" width="240" height="100" as="geometry">
            <mxRectangle x="550" y="140" width="160" height="26" as="alternateBounds" />
          </mxGeometry>
        </mxCell>
        <mxCell id="KQqe6mfhrijCWGsZN7re-13" value="" style="line;html=1;strokeWidth=1;align=left;verticalAlign=middle;spacingTop=-1;spacingLeft=3;spacingRight=3;rotatable=0;labelPosition=right;points=[];portConstraint=eastwest;" parent="KQqe6mfhrijCWGsZN7re-12" vertex="1">
          <mxGeometry y="40" width="240" height="8" as="geometry" />
        </mxCell>
        <mxCell id="KQqe6mfhrijCWGsZN7re-14" value="+create(objectSettings): Steps[]&#xa;" style="text;align=left;verticalAlign=top;spacingLeft=4;spacingRight=4;overflow=hidden;rotatable=0;points=[[0,0.5],[1,0.5]];portConstraint=eastwest;" parent="KQqe6mfhrijCWGsZN7re-12" vertex="1">
          <mxGeometry y="48" width="240" height="26" as="geometry" />
        </mxCell>
        <mxCell id="KQqe6mfhrijCWGsZN7re-15" value="+getTargetDescribe(): DescribeResult&#xa;" style="text;align=left;verticalAlign=top;spacingLeft=4;spacingRight=4;overflow=hidden;rotatable=0;points=[[0,0.5],[1,0.5]];portConstraint=eastwest;" parent="KQqe6mfhrijCWGsZN7re-12" vertex="1">
          <mxGeometry y="74" width="240" height="26" as="geometry" />
        </mxCell>
        <mxCell id="KQqe6mfhrijCWGsZN7re-16" value="BaseStep" style="swimlane;fontStyle=0;align=center;verticalAlign=top;childLayout=stackLayout;horizontal=1;startSize=26;horizontalStack=0;resizeParent=1;resizeLast=0;collapsible=1;marginBottom=0;rounded=0;shadow=0;strokeWidth=1;" parent="WIyWlLk6GJQsqaUBKTNV-1" vertex="1">
          <mxGeometry x="558.81" y="810" width="436.25" height="200" as="geometry">
            <mxRectangle x="550" y="140" width="160" height="26" as="alternateBounds" />
          </mxGeometry>
        </mxCell>
        <mxCell id="KQqe6mfhrijCWGsZN7re-17" value="#targetInstance: AxiosInstance" style="text;align=left;verticalAlign=top;spacingLeft=4;spacingRight=4;overflow=hidden;rotatable=0;points=[[0,0.5],[1,0.5]];portConstraint=eastwest;" parent="KQqe6mfhrijCWGsZN7re-16" vertex="1">
          <mxGeometry y="26" width="436.25" height="26" as="geometry" />
        </mxCell>
        <mxCell id="KQqe6mfhrijCWGsZN7re-18" value="#sourceInstance: AxiosInstance" style="text;align=left;verticalAlign=top;spacingLeft=4;spacingRight=4;overflow=hidden;rotatable=0;points=[[0,0.5],[1,0.5]];portConstraint=eastwest;" parent="KQqe6mfhrijCWGsZN7re-16" vertex="1">
          <mxGeometry y="52" width="436.25" height="26" as="geometry" />
        </mxCell>
        <mxCell id="KQqe6mfhrijCWGsZN7re-19" value="# objectName" style="text;align=left;verticalAlign=top;spacingLeft=4;spacingRight=4;overflow=hidden;rotatable=0;points=[[0,0.5],[1,0.5]];portConstraint=eastwest;" parent="KQqe6mfhrijCWGsZN7re-16" vertex="1">
          <mxGeometry y="78" width="436.25" height="26" as="geometry" />
        </mxCell>
        <mxCell id="KQqe6mfhrijCWGsZN7re-20" value="# fields:String[]" style="text;align=left;verticalAlign=top;spacingLeft=4;spacingRight=4;overflow=hidden;rotatable=0;points=[[0,0.5],[1,0.5]];portConstraint=eastwest;" parent="KQqe6mfhrijCWGsZN7re-16" vertex="1">
          <mxGeometry y="104" width="436.25" height="26" as="geometry" />
        </mxCell>
        <mxCell id="KQqe6mfhrijCWGsZN7re-21" value="# whereClause:String" style="text;align=left;verticalAlign=top;spacingLeft=4;spacingRight=4;overflow=hidden;rotatable=0;points=[[0,0.5],[1,0.5]];portConstraint=eastwest;" parent="KQqe6mfhrijCWGsZN7re-16" vertex="1">
          <mxGeometry y="130" width="436.25" height="26" as="geometry" />
        </mxCell>
        <mxCell id="KQqe6mfhrijCWGsZN7re-22" value="" style="line;html=1;strokeWidth=1;align=left;verticalAlign=middle;spacingTop=-1;spacingLeft=3;spacingRight=3;rotatable=0;labelPosition=right;points=[];portConstraint=eastwest;" parent="KQqe6mfhrijCWGsZN7re-16" vertex="1">
          <mxGeometry y="156" width="436.25" height="8" as="geometry" />
        </mxCell>
        <mxCell id="KQqe6mfhrijCWGsZN7re-23" value="+execute()" style="text;align=left;verticalAlign=top;spacingLeft=4;spacingRight=4;overflow=hidden;rotatable=0;points=[[0,0.5],[1,0.5]];portConstraint=eastwest;" parent="KQqe6mfhrijCWGsZN7re-16" vertex="1">
          <mxGeometry y="164" width="436.25" height="26" as="geometry" />
        </mxCell>
        <mxCell id="KQqe6mfhrijCWGsZN7re-24" style="edgeStyle=orthogonalEdgeStyle;rounded=0;orthogonalLoop=1;jettySize=auto;html=1;" parent="WIyWlLk6GJQsqaUBKTNV-1" source="KQqe6mfhrijCWGsZN7re-25" target="KQqe6mfhrijCWGsZN7re-16" edge="1">
          <mxGeometry relative="1" as="geometry">
            <Array as="points">
              <mxPoint x="440" y="1110" />
              <mxPoint x="780" y="1110" />
            </Array>
          </mxGeometry>
        </mxCell>
        <mxCell id="KQqe6mfhrijCWGsZN7re-25" value="DefaultStep" style="swimlane;html=1;fontStyle=0;childLayout=stackLayout;horizontal=1;startSize=26;fillColor=none;horizontalStack=0;resizeParent=1;resizeLast=0;collapsible=1;marginBottom=0;swimlaneFillColor=#ffffff;rounded=0;shadow=0;comic=0;labelBackgroundColor=none;strokeWidth=1;fontFamily=Verdana;fontSize=10;align=center;" parent="WIyWlLk6GJQsqaUBKTNV-1" vertex="1">
          <mxGeometry x="360" y="1120" width="160" height="104" as="geometry" />
        </mxCell>
        <mxCell id="KQqe6mfhrijCWGsZN7re-26" value="- keySet: String[]" style="text;html=1;strokeColor=none;fillColor=none;align=left;verticalAlign=top;spacingLeft=4;spacingRight=4;whiteSpace=wrap;overflow=hidden;rotatable=0;points=[[0,0.5],[1,0.5]];portConstraint=eastwest;" parent="KQqe6mfhrijCWGsZN7re-25" vertex="1">
          <mxGeometry y="26" width="160" height="26" as="geometry" />
        </mxCell>
        <mxCell id="KQqe6mfhrijCWGsZN7re-27" value="- parentObjects: String[]" style="text;html=1;strokeColor=none;fillColor=none;align=left;verticalAlign=top;spacingLeft=4;spacingRight=4;whiteSpace=wrap;overflow=hidden;rotatable=0;points=[[0,0.5],[1,0.5]];portConstraint=eastwest;" parent="KQqe6mfhrijCWGsZN7re-25" vertex="1">
          <mxGeometry y="52" width="160" height="26" as="geometry" />
        </mxCell>
        <mxCell id="L-BeHeg3JpJRG0hnVt9p-30" value="+execute()&#xa;" style="text;align=left;verticalAlign=top;spacingLeft=4;spacingRight=4;overflow=hidden;rotatable=0;points=[[0,0.5],[1,0.5]];portConstraint=eastwest;" parent="KQqe6mfhrijCWGsZN7re-25" vertex="1">
          <mxGeometry y="78" width="160" height="26" as="geometry" />
        </mxCell>
        <mxCell id="KQqe6mfhrijCWGsZN7re-28" style="edgeStyle=orthogonalEdgeStyle;rounded=0;orthogonalLoop=1;jettySize=auto;html=1;exitX=0.5;exitY=0;exitDx=0;exitDy=0;" parent="WIyWlLk6GJQsqaUBKTNV-1" source="KQqe6mfhrijCWGsZN7re-29" target="KQqe6mfhrijCWGsZN7re-16" edge="1">
          <mxGeometry relative="1" as="geometry">
            <Array as="points">
              <mxPoint x="675" y="1110" />
              <mxPoint x="780" y="1110" />
            </Array>
          </mxGeometry>
        </mxCell>
        <mxCell id="KQqe6mfhrijCWGsZN7re-29" value="CrossStep" style="swimlane;html=1;fontStyle=0;childLayout=stackLayout;horizontal=1;startSize=26;fillColor=none;horizontalStack=0;resizeParent=1;resizeLast=0;collapsible=1;marginBottom=0;swimlaneFillColor=#ffffff;rounded=0;shadow=0;comic=0;labelBackgroundColor=none;strokeWidth=1;fontFamily=Verdana;fontSize=10;align=center;" parent="WIyWlLk6GJQsqaUBKTNV-1" vertex="1">
          <mxGeometry x="595.06" y="1150" width="160" height="60" as="geometry" />
        </mxCell>
        <mxCell id="KQqe6mfhrijCWGsZN7re-30" style="edgeStyle=orthogonalEdgeStyle;rounded=0;orthogonalLoop=1;jettySize=auto;html=1;" parent="WIyWlLk6GJQsqaUBKTNV-1" source="KQqe6mfhrijCWGsZN7re-31" target="KQqe6mfhrijCWGsZN7re-16" edge="1">
          <mxGeometry relative="1" as="geometry">
            <Array as="points">
              <mxPoint x="920" y="1110" />
              <mxPoint x="780" y="1110" />
            </Array>
          </mxGeometry>
        </mxCell>
        <mxCell id="KQqe6mfhrijCWGsZN7re-31" value="RecursiveStep" style="swimlane;html=1;fontStyle=0;childLayout=stackLayout;horizontal=1;startSize=26;fillColor=none;horizontalStack=0;resizeParent=1;resizeLast=0;collapsible=1;marginBottom=0;swimlaneFillColor=#ffffff;rounded=0;shadow=0;comic=0;labelBackgroundColor=none;strokeWidth=1;fontFamily=Verdana;fontSize=10;align=center;" parent="WIyWlLk6GJQsqaUBKTNV-1" vertex="1">
          <mxGeometry x="835.06" y="1150" width="160" height="60" as="geometry" />
        </mxCell>
        <mxCell id="KQqe6mfhrijCWGsZN7re-32" style="edgeStyle=orthogonalEdgeStyle;rounded=0;orthogonalLoop=1;jettySize=auto;html=1;" parent="WIyWlLk6GJQsqaUBKTNV-1" source="KQqe6mfhrijCWGsZN7re-33" target="KQqe6mfhrijCWGsZN7re-34" edge="1">
          <mxGeometry relative="1" as="geometry" />
        </mxCell>
        <mxCell id="KQqe6mfhrijCWGsZN7re-33" value="BaseRetriever" style="swimlane;html=1;fontStyle=0;childLayout=stackLayout;horizontal=1;startSize=26;fillColor=none;horizontalStack=0;resizeParent=1;resizeLast=0;collapsible=1;marginBottom=0;swimlaneFillColor=#ffffff;rounded=0;shadow=0;comic=0;labelBackgroundColor=none;strokeWidth=1;fontFamily=Verdana;fontSize=10;align=center;" parent="WIyWlLk6GJQsqaUBKTNV-1" vertex="1">
          <mxGeometry x="-604.94" y="1460" width="159" height="104" as="geometry" />
        </mxCell>
        <mxCell id="L-BeHeg3JpJRG0hnVt9p-32" value="#fields : string[]" style="text;html=1;strokeColor=default;fillColor=none;align=left;verticalAlign=top;spacingLeft=4;spacingRight=4;whiteSpace=wrap;overflow=hidden;rotatable=0;points=[[0,0.5],[1,0.5]];portConstraint=eastwest;perimeterSpacing=1;strokeWidth=1;" parent="KQqe6mfhrijCWGsZN7re-33" vertex="1">
          <mxGeometry y="26" width="159" height="26" as="geometry" />
        </mxCell>
        <mxCell id="L-BeHeg3JpJRG0hnVt9p-33" value="#whereClause : string" style="text;html=1;strokeColor=default;fillColor=none;align=left;verticalAlign=top;spacingLeft=4;spacingRight=4;whiteSpace=wrap;overflow=hidden;rotatable=0;points=[[0,0.5],[1,0.5]];portConstraint=eastwest;perimeterSpacing=1;strokeWidth=1;" parent="KQqe6mfhrijCWGsZN7re-33" vertex="1">
          <mxGeometry y="52" width="159" height="26" as="geometry" />
        </mxCell>
        <mxCell id="L-BeHeg3JpJRG0hnVt9p-34" value="#objectName : string" style="text;html=1;strokeColor=default;fillColor=none;align=left;verticalAlign=top;spacingLeft=4;spacingRight=4;whiteSpace=wrap;overflow=hidden;rotatable=0;points=[[0,0.5],[1,0.5]];portConstraint=eastwest;perimeterSpacing=1;strokeWidth=1;" parent="KQqe6mfhrijCWGsZN7re-33" vertex="1">
          <mxGeometry y="78" width="159" height="26" as="geometry" />
        </mxCell>
        <mxCell id="KQqe6mfhrijCWGsZN7re-34" value="Readable" style="swimlane;html=1;fontStyle=0;childLayout=stackLayout;horizontal=1;startSize=26;fillColor=none;horizontalStack=0;resizeParent=1;resizeLast=0;collapsible=1;marginBottom=0;swimlaneFillColor=#ffffff;rounded=0;shadow=0;comic=0;labelBackgroundColor=none;strokeWidth=1;fontFamily=Verdana;fontSize=10;align=center;" parent="WIyWlLk6GJQsqaUBKTNV-1" vertex="1">
          <mxGeometry x="-599.94" y="1410" width="149" height="20" as="geometry" />
        </mxCell>
        <mxCell id="KQqe6mfhrijCWGsZN7re-35" style="edgeStyle=orthogonalEdgeStyle;rounded=0;orthogonalLoop=1;jettySize=auto;html=1;" parent="WIyWlLk6GJQsqaUBKTNV-1" source="KQqe6mfhrijCWGsZN7re-36" target="KQqe6mfhrijCWGsZN7re-38" edge="1">
          <mxGeometry relative="1" as="geometry">
            <Array as="points">
              <mxPoint x="170.06" y="1480" />
              <mxPoint x="170.06" y="1480" />
            </Array>
          </mxGeometry>
        </mxCell>
        <mxCell id="KQqe6mfhrijCWGsZN7re-36" value="BaseIdMatcher" style="swimlane;html=1;fontStyle=0;childLayout=stackLayout;horizontal=1;startSize=26;fillColor=none;horizontalStack=0;resizeParent=1;resizeLast=0;collapsible=1;marginBottom=0;swimlaneFillColor=#ffffff;rounded=0;shadow=0;comic=0;labelBackgroundColor=none;strokeWidth=1;fontFamily=Verdana;fontSize=10;align=center;" parent="WIyWlLk6GJQsqaUBKTNV-1" vertex="1">
          <mxGeometry x="30.12" y="1508" width="270" height="22" as="geometry" />
        </mxCell>
        <mxCell id="KQqe6mfhrijCWGsZN7re-38" value="Transform" style="swimlane;html=1;fontStyle=0;childLayout=stackLayout;horizontal=1;startSize=26;fillColor=none;horizontalStack=0;resizeParent=1;resizeLast=0;collapsible=1;marginBottom=0;swimlaneFillColor=#ffffff;rounded=0;shadow=0;comic=0;labelBackgroundColor=none;strokeWidth=1;fontFamily=Verdana;fontSize=10;align=center;" parent="WIyWlLk6GJQsqaUBKTNV-1" vertex="1">
          <mxGeometry x="90.12" y="1440" width="150" height="20" as="geometry" />
        </mxCell>
        <mxCell id="KQqe6mfhrijCWGsZN7re-39" style="edgeStyle=orthogonalEdgeStyle;rounded=0;orthogonalLoop=1;jettySize=auto;html=1;" parent="WIyWlLk6GJQsqaUBKTNV-1" source="KQqe6mfhrijCWGsZN7re-40" target="KQqe6mfhrijCWGsZN7re-36" edge="1">
          <mxGeometry relative="1" as="geometry">
            <Array as="points">
              <mxPoint x="-54.94" y="1590" />
              <mxPoint x="170.06" y="1590" />
            </Array>
          </mxGeometry>
        </mxCell>
        <mxCell id="KQqe6mfhrijCWGsZN7re-40" value="KeysetIdMatcher" style="swimlane;html=1;fontStyle=0;childLayout=stackLayout;horizontal=1;startSize=26;fillColor=none;horizontalStack=0;resizeParent=1;resizeLast=0;collapsible=1;marginBottom=0;swimlaneFillColor=#ffffff;rounded=0;shadow=0;comic=0;labelBackgroundColor=none;strokeWidth=1;fontFamily=Verdana;fontSize=10;align=center;" parent="WIyWlLk6GJQsqaUBKTNV-1" vertex="1">
          <mxGeometry x="-239.94" y="1633" width="370" height="237" as="geometry" />
        </mxCell>
        <mxCell id="KQqe6mfhrijCWGsZN7re-41" value="-records : RecordDetail[]" style="text;html=1;strokeColor=none;fillColor=none;align=left;verticalAlign=top;spacingLeft=4;spacingRight=4;whiteSpace=wrap;overflow=hidden;rotatable=0;points=[[0,0.5],[1,0.5]];portConstraint=eastwest;" parent="KQqe6mfhrijCWGsZN7re-40" vertex="1">
          <mxGeometry y="26" width="370" height="26" as="geometry" />
        </mxCell>
        <mxCell id="KQqe6mfhrijCWGsZN7re-42" value="-keySet : string[]" style="text;html=1;strokeColor=default;fillColor=none;align=left;verticalAlign=top;spacingLeft=4;spacingRight=4;whiteSpace=wrap;overflow=hidden;rotatable=0;points=[[0,0.5],[1,0.5]];portConstraint=eastwest;perimeterSpacing=1;strokeWidth=1;" parent="KQqe6mfhrijCWGsZN7re-40" vertex="1">
          <mxGeometry y="52" width="370" height="26" as="geometry" />
        </mxCell>
        <mxCell id="KQqe6mfhrijCWGsZN7re-44" value="_transform(RecordDetail)" style="text;html=1;strokeColor=none;fillColor=none;align=left;verticalAlign=top;spacingLeft=4;spacingRight=4;whiteSpace=wrap;overflow=hidden;rotatable=0;points=[[0,0.5],[1,0.5]];portConstraint=eastwest;" parent="KQqe6mfhrijCWGsZN7re-40" vertex="1">
          <mxGeometry y="78" width="370" height="26" as="geometry" />
        </mxCell>
        <mxCell id="KQqe6mfhrijCWGsZN7re-45" value="_flush()" style="text;html=1;strokeColor=none;fillColor=none;align=left;verticalAlign=top;spacingLeft=4;spacingRight=4;whiteSpace=wrap;overflow=hidden;rotatable=0;points=[[0,0.5],[1,0.5]];portConstraint=eastwest;" parent="KQqe6mfhrijCWGsZN7re-40" vertex="1">
          <mxGeometry y="104" width="370" height="26" as="geometry" />
        </mxCell>
        <mxCell id="KQqe6mfhrijCWGsZN7re-46" value="-createQueryFindRecordsInTarget()" style="text;html=1;strokeColor=none;fillColor=none;align=left;verticalAlign=top;spacingLeft=4;spacingRight=4;whiteSpace=wrap;overflow=hidden;rotatable=0;points=[[0,0.5],[1,0.5]];portConstraint=eastwest;" parent="KQqe6mfhrijCWGsZN7re-40" vertex="1">
          <mxGeometry y="130" width="370" height="26" as="geometry" />
        </mxCell>
        <mxCell id="KQqe6mfhrijCWGsZN7re-47" value="-retrieveTargetRecordsByKeyFields()" style="text;html=1;strokeColor=none;fillColor=none;align=left;verticalAlign=top;spacingLeft=4;spacingRight=4;whiteSpace=wrap;overflow=hidden;rotatable=0;points=[[0,0.5],[1,0.5]];portConstraint=eastwest;" parent="KQqe6mfhrijCWGsZN7re-40" vertex="1">
          <mxGeometry y="156" width="370" height="26" as="geometry" />
        </mxCell>
        <mxCell id="KQqe6mfhrijCWGsZN7re-48" value="-matchRecords(sourceRecords, targetRecords) : recordsToUpsert[]" style="text;html=1;strokeColor=none;fillColor=none;align=left;verticalAlign=top;spacingLeft=4;spacingRight=4;whiteSpace=wrap;overflow=hidden;rotatable=0;points=[[0,0.5],[1,0.5]];portConstraint=eastwest;" parent="KQqe6mfhrijCWGsZN7re-40" vertex="1">
          <mxGeometry y="182" width="370" height="26" as="geometry" />
        </mxCell>
        <mxCell id="KQqe6mfhrijCWGsZN7re-49" style="edgeStyle=orthogonalEdgeStyle;rounded=0;orthogonalLoop=1;jettySize=auto;html=1;" parent="WIyWlLk6GJQsqaUBKTNV-1" source="KQqe6mfhrijCWGsZN7re-50" target="KQqe6mfhrijCWGsZN7re-36" edge="1">
          <mxGeometry relative="1" as="geometry">
            <Array as="points">
              <mxPoint x="495.06" y="1590" />
              <mxPoint x="170.06" y="1590" />
            </Array>
          </mxGeometry>
        </mxCell>
        <mxCell id="KQqe6mfhrijCWGsZN7re-50" value="CasheIdMatcher" style="swimlane;html=1;fontStyle=0;childLayout=stackLayout;horizontal=1;startSize=26;fillColor=none;horizontalStack=0;resizeParent=1;resizeLast=0;collapsible=1;marginBottom=0;swimlaneFillColor=#ffffff;rounded=0;shadow=0;comic=0;labelBackgroundColor=none;strokeWidth=1;fontFamily=Verdana;fontSize=10;align=center;" parent="WIyWlLk6GJQsqaUBKTNV-1" vertex="1">
          <mxGeometry x="395.06" y="1633" width="200" height="78" as="geometry" />
        </mxCell>
        <mxCell id="KQqe6mfhrijCWGsZN7re-51" value="-records : RecordDetail[]" style="text;html=1;strokeColor=default;fillColor=none;align=left;verticalAlign=top;spacingLeft=4;spacingRight=4;whiteSpace=wrap;overflow=hidden;rotatable=0;points=[[0,0.5],[1,0.5]];portConstraint=eastwest;" parent="KQqe6mfhrijCWGsZN7re-50" vertex="1">
          <mxGeometry y="26" width="200" height="26" as="geometry" />
        </mxCell>
        <mxCell id="KQqe6mfhrijCWGsZN7re-52" value="_transform(RecordDetail)&amp;nbsp;" style="text;html=1;strokeColor=none;fillColor=none;align=left;verticalAlign=top;spacingLeft=4;spacingRight=4;whiteSpace=wrap;overflow=hidden;rotatable=0;points=[[0,0.5],[1,0.5]];portConstraint=eastwest;" parent="KQqe6mfhrijCWGsZN7re-50" vertex="1">
          <mxGeometry y="52" width="200" height="26" as="geometry" />
        </mxCell>
        <mxCell id="KQqe6mfhrijCWGsZN7re-53" style="edgeStyle=orthogonalEdgeStyle;rounded=0;orthogonalLoop=1;jettySize=auto;html=1;" parent="WIyWlLk6GJQsqaUBKTNV-1" source="KQqe6mfhrijCWGsZN7re-54" target="KQqe6mfhrijCWGsZN7re-56" edge="1">
          <mxGeometry relative="1" as="geometry" />
        </mxCell>
        <mxCell id="KQqe6mfhrijCWGsZN7re-54" value="DeployerBase" style="swimlane;html=1;fontStyle=0;childLayout=stackLayout;horizontal=1;startSize=26;fillColor=none;horizontalStack=0;resizeParent=1;resizeLast=0;collapsible=1;marginBottom=0;swimlaneFillColor=#ffffff;rounded=0;shadow=0;comic=0;labelBackgroundColor=none;strokeWidth=1;fontFamily=Verdana;fontSize=10;align=center;" parent="WIyWlLk6GJQsqaUBKTNV-1" vertex="1">
          <mxGeometry x="1625.06" y="1540" width="160" height="78" as="geometry" />
        </mxCell>
        <mxCell id="L-BeHeg3JpJRG0hnVt9p-48" value="records(&lt;span style=&quot;background-color: initial;&quot;&gt;RecordResult&lt;/span&gt;[])&amp;nbsp;" style="text;html=1;strokeColor=none;fillColor=none;align=left;verticalAlign=top;spacingLeft=4;spacingRight=4;whiteSpace=wrap;overflow=hidden;rotatable=0;points=[[0,0.5],[1,0.5]];portConstraint=eastwest;" parent="KQqe6mfhrijCWGsZN7re-54" vertex="1">
          <mxGeometry y="26" width="160" height="26" as="geometry" />
        </mxCell>
        <mxCell id="KQqe6mfhrijCWGsZN7re-55" value="deploy(): Result[]" style="text;html=1;strokeColor=none;fillColor=none;align=left;verticalAlign=top;spacingLeft=4;spacingRight=4;whiteSpace=wrap;overflow=hidden;rotatable=0;points=[[0,0.5],[1,0.5]];portConstraint=eastwest;" parent="KQqe6mfhrijCWGsZN7re-54" vertex="1">
          <mxGeometry y="52" width="160" height="26" as="geometry" />
        </mxCell>
        <mxCell id="KQqe6mfhrijCWGsZN7re-56" value="Writable" style="swimlane;html=1;fontStyle=0;childLayout=stackLayout;horizontal=1;startSize=26;fillColor=none;horizontalStack=0;resizeParent=1;resizeLast=0;collapsible=1;marginBottom=0;swimlaneFillColor=#ffffff;rounded=0;shadow=0;comic=0;labelBackgroundColor=none;strokeWidth=1;fontFamily=Verdana;fontSize=10;align=center;" parent="WIyWlLk6GJQsqaUBKTNV-1" vertex="1">
          <mxGeometry x="1630.06" y="1440" width="150" height="20" as="geometry" />
        </mxCell>
        <mxCell id="KQqe6mfhrijCWGsZN7re-57" style="edgeStyle=orthogonalEdgeStyle;rounded=0;orthogonalLoop=1;jettySize=auto;html=1;" parent="WIyWlLk6GJQsqaUBKTNV-1" source="KQqe6mfhrijCWGsZN7re-58" target="KQqe6mfhrijCWGsZN7re-54" edge="1">
          <mxGeometry relative="1" as="geometry" />
        </mxCell>
        <mxCell id="KQqe6mfhrijCWGsZN7re-58" value="BinaryDeployer" style="swimlane;html=1;fontStyle=0;childLayout=stackLayout;horizontal=1;startSize=26;fillColor=none;horizontalStack=0;resizeParent=1;resizeLast=0;collapsible=1;marginBottom=0;swimlaneFillColor=#ffffff;rounded=0;shadow=0;comic=0;labelBackgroundColor=none;strokeWidth=1;fontFamily=Verdana;fontSize=10;align=center;" parent="WIyWlLk6GJQsqaUBKTNV-1" vertex="1">
          <mxGeometry x="1525.06" y="1679" width="160" height="78" as="geometry" />
        </mxCell>
        <mxCell id="L-BeHeg3JpJRG0hnVt9p-20" value="_write(&lt;span style=&quot;background-color: initial;&quot;&gt;RecordResult&lt;/span&gt;)&amp;nbsp;" style="text;html=1;strokeColor=none;fillColor=none;align=left;verticalAlign=top;spacingLeft=4;spacingRight=4;whiteSpace=wrap;overflow=hidden;rotatable=0;points=[[0,0.5],[1,0.5]];portConstraint=eastwest;" parent="KQqe6mfhrijCWGsZN7re-58" vertex="1">
          <mxGeometry y="26" width="160" height="26" as="geometry" />
        </mxCell>
        <mxCell id="L-BeHeg3JpJRG0hnVt9p-49" value="_flush()&amp;nbsp;" style="text;html=1;strokeColor=none;fillColor=none;align=left;verticalAlign=top;spacingLeft=4;spacingRight=4;whiteSpace=wrap;overflow=hidden;rotatable=0;points=[[0,0.5],[1,0.5]];portConstraint=eastwest;" parent="KQqe6mfhrijCWGsZN7re-58" vertex="1">
          <mxGeometry y="52" width="160" height="26" as="geometry" />
        </mxCell>
        <mxCell id="KQqe6mfhrijCWGsZN7re-59" style="edgeStyle=orthogonalEdgeStyle;rounded=0;orthogonalLoop=1;jettySize=auto;html=1;" parent="WIyWlLk6GJQsqaUBKTNV-1" source="KQqe6mfhrijCWGsZN7re-60" target="KQqe6mfhrijCWGsZN7re-54" edge="1">
          <mxGeometry relative="1" as="geometry" />
        </mxCell>
        <mxCell id="KQqe6mfhrijCWGsZN7re-60" value="DefaultDeployer" style="swimlane;html=1;fontStyle=0;childLayout=stackLayout;horizontal=1;startSize=26;fillColor=none;horizontalStack=0;resizeParent=1;resizeLast=0;collapsible=1;marginBottom=0;swimlaneFillColor=#ffffff;rounded=0;shadow=0;comic=0;labelBackgroundColor=none;strokeWidth=1;fontFamily=Verdana;fontSize=10;align=center;" parent="WIyWlLk6GJQsqaUBKTNV-1" vertex="1">
          <mxGeometry x="1725.06" y="1679" width="160" height="78" as="geometry" />
        </mxCell>
        <mxCell id="L-BeHeg3JpJRG0hnVt9p-21" value="_write(&lt;span style=&quot;background-color: initial;&quot;&gt;RecordResult&lt;/span&gt;)&amp;nbsp;" style="text;html=1;strokeColor=none;fillColor=none;align=left;verticalAlign=top;spacingLeft=4;spacingRight=4;whiteSpace=wrap;overflow=hidden;rotatable=0;points=[[0,0.5],[1,0.5]];portConstraint=eastwest;" parent="KQqe6mfhrijCWGsZN7re-60" vertex="1">
          <mxGeometry y="26" width="160" height="26" as="geometry" />
        </mxCell>
        <mxCell id="L-BeHeg3JpJRG0hnVt9p-50" value="_flush()&amp;nbsp;" style="text;html=1;strokeColor=none;fillColor=none;align=left;verticalAlign=top;spacingLeft=4;spacingRight=4;whiteSpace=wrap;overflow=hidden;rotatable=0;points=[[0,0.5],[1,0.5]];portConstraint=eastwest;" parent="KQqe6mfhrijCWGsZN7re-60" vertex="1">
          <mxGeometry y="52" width="160" height="26" as="geometry" />
        </mxCell>
        <mxCell id="KQqe6mfhrijCWGsZN7re-61" value="DeployResult" style="swimlane;html=1;fontStyle=0;childLayout=stackLayout;horizontal=1;startSize=26;fillColor=none;horizontalStack=0;resizeParent=1;resizeLast=0;collapsible=1;marginBottom=0;swimlaneFillColor=#ffffff;rounded=0;shadow=0;comic=0;labelBackgroundColor=none;strokeWidth=1;fontFamily=Verdana;fontSize=10;align=center;" parent="WIyWlLk6GJQsqaUBKTNV-1" vertex="1">
          <mxGeometry x="1970" y="1440" width="150" height="84" as="geometry" />
        </mxCell>
        <mxCell id="KQqe6mfhrijCWGsZN7re-62" value="logErrors()" style="text;html=1;strokeColor=none;fillColor=none;align=left;verticalAlign=top;spacingLeft=4;spacingRight=4;whiteSpace=wrap;overflow=hidden;rotatable=0;points=[[0,0.5],[1,0.5]];portConstraint=eastwest;" parent="KQqe6mfhrijCWGsZN7re-61" vertex="1">
          <mxGeometry y="26" width="150" height="32" as="geometry" />
        </mxCell>
        <mxCell id="KQqe6mfhrijCWGsZN7re-65" value="saveIdMapping()" style="text;html=1;strokeColor=none;fillColor=none;align=left;verticalAlign=top;spacingLeft=4;spacingRight=4;whiteSpace=wrap;overflow=hidden;rotatable=0;points=[[0,0.5],[1,0.5]];portConstraint=eastwest;" parent="KQqe6mfhrijCWGsZN7re-61" vertex="1">
          <mxGeometry y="58" width="150" height="26" as="geometry" />
        </mxCell>
        <mxCell id="KQqe6mfhrijCWGsZN7re-68" style="edgeStyle=orthogonalEdgeStyle;rounded=0;orthogonalLoop=1;jettySize=auto;html=1;" parent="WIyWlLk6GJQsqaUBKTNV-1" source="KQqe6mfhrijCWGsZN7re-69" target="KQqe6mfhrijCWGsZN7re-16" edge="1">
          <mxGeometry relative="1" as="geometry">
            <Array as="points">
              <mxPoint x="1145" y="1110" />
              <mxPoint x="780" y="1110" />
            </Array>
          </mxGeometry>
        </mxCell>
        <mxCell id="KQqe6mfhrijCWGsZN7re-69" value="UpdateStep" style="swimlane;html=1;fontStyle=0;childLayout=stackLayout;horizontal=1;startSize=26;fillColor=none;horizontalStack=0;resizeParent=1;resizeLast=0;collapsible=1;marginBottom=0;swimlaneFillColor=#ffffff;rounded=0;shadow=0;comic=0;labelBackgroundColor=none;strokeWidth=1;fontFamily=Verdana;fontSize=10;align=center;" parent="WIyWlLk6GJQsqaUBKTNV-1" vertex="1">
          <mxGeometry x="1065.06" y="1150" width="160" height="60" as="geometry" />
        </mxCell>
        <mxCell id="KQqe6mfhrijCWGsZN7re-70" style="edgeStyle=orthogonalEdgeStyle;rounded=0;orthogonalLoop=1;jettySize=auto;html=1;" parent="WIyWlLk6GJQsqaUBKTNV-1" source="KQqe6mfhrijCWGsZN7re-71" target="KQqe6mfhrijCWGsZN7re-33" edge="1">
          <mxGeometry relative="1" as="geometry">
            <Array as="points">
              <mxPoint x="-651" y="1600" />
              <mxPoint x="-525" y="1600" />
            </Array>
          </mxGeometry>
        </mxCell>
        <mxCell id="KQqe6mfhrijCWGsZN7re-71" value="BinaryRetrieve" style="swimlane;html=1;fontStyle=0;childLayout=stackLayout;horizontal=1;startSize=26;fillColor=none;horizontalStack=0;resizeParent=1;resizeLast=0;collapsible=1;marginBottom=0;swimlaneFillColor=#ffffff;rounded=0;shadow=0;comic=0;labelBackgroundColor=none;strokeWidth=1;fontFamily=Verdana;fontSize=10;align=center;" parent="WIyWlLk6GJQsqaUBKTNV-1" vertex="1">
          <mxGeometry x="-730" y="1630" width="159" height="110" as="geometry" />
        </mxCell>
        <mxCell id="L-BeHeg3JpJRG0hnVt9p-35" value="-binaryFields : string[]" style="text;html=1;strokeColor=default;fillColor=none;align=left;verticalAlign=top;spacingLeft=4;spacingRight=4;whiteSpace=wrap;overflow=hidden;rotatable=0;points=[[0,0.5],[1,0.5]];portConstraint=eastwest;perimeterSpacing=1;strokeWidth=1;" parent="KQqe6mfhrijCWGsZN7re-71" vertex="1">
          <mxGeometry y="26" width="159" height="26" as="geometry" />
        </mxCell>
        <mxCell id="KQqe6mfhrijCWGsZN7re-72" style="edgeStyle=orthogonalEdgeStyle;rounded=0;orthogonalLoop=1;jettySize=auto;html=1;" parent="WIyWlLk6GJQsqaUBKTNV-1" source="KQqe6mfhrijCWGsZN7re-73" target="KQqe6mfhrijCWGsZN7re-33" edge="1">
          <mxGeometry relative="1" as="geometry">
            <Array as="points">
              <mxPoint x="-420" y="1600" />
              <mxPoint x="-525" y="1600" />
            </Array>
          </mxGeometry>
        </mxCell>
        <mxCell id="KQqe6mfhrijCWGsZN7re-73" value="RestRetrieve" style="swimlane;html=1;fontStyle=0;childLayout=stackLayout;horizontal=1;startSize=26;fillColor=none;horizontalStack=0;resizeParent=1;resizeLast=0;collapsible=1;marginBottom=0;swimlaneFillColor=#ffffff;rounded=0;shadow=0;comic=0;labelBackgroundColor=none;strokeWidth=1;fontFamily=Verdana;fontSize=10;align=center;" parent="WIyWlLk6GJQsqaUBKTNV-1" vertex="1">
          <mxGeometry x="-499.94" y="1635" width="159" height="110" as="geometry" />
        </mxCell>
        <mxCell id="KQqe6mfhrijCWGsZN7re-74" style="edgeStyle=orthogonalEdgeStyle;rounded=0;orthogonalLoop=1;jettySize=auto;html=1;" parent="WIyWlLk6GJQsqaUBKTNV-1" source="KQqe6mfhrijCWGsZN7re-75" target="KQqe6mfhrijCWGsZN7re-78" edge="1">
          <mxGeometry relative="1" as="geometry">
            <Array as="points" />
            <mxPoint x="840" y="1468" as="targetPoint" />
          </mxGeometry>
        </mxCell>
        <mxCell id="KQqe6mfhrijCWGsZN7re-75" value="RelationshipMatcher" style="swimlane;html=1;fontStyle=0;childLayout=stackLayout;horizontal=1;startSize=26;fillColor=none;horizontalStack=0;resizeParent=1;resizeLast=0;collapsible=1;marginBottom=0;swimlaneFillColor=#ffffff;rounded=0;shadow=0;comic=0;labelBackgroundColor=none;strokeWidth=1;fontFamily=Verdana;fontSize=10;align=center;" parent="WIyWlLk6GJQsqaUBKTNV-1" vertex="1">
          <mxGeometry x="690" y="1530" width="290" height="78" as="geometry" />
        </mxCell>
        <mxCell id="KQqe6mfhrijCWGsZN7re-76" value="-records : RecordDetail[]" style="text;html=1;strokeColor=default;fillColor=none;align=left;verticalAlign=top;spacingLeft=4;spacingRight=4;whiteSpace=wrap;overflow=hidden;rotatable=0;points=[[0,0.5],[1,0.5]];portConstraint=eastwest;" parent="KQqe6mfhrijCWGsZN7re-75" vertex="1">
          <mxGeometry y="26" width="290" height="26" as="geometry" />
        </mxCell>
        <mxCell id="KQqe6mfhrijCWGsZN7re-77" value="_transform(RecordDetail)&amp;nbsp;" style="text;html=1;strokeColor=none;fillColor=none;align=left;verticalAlign=top;spacingLeft=4;spacingRight=4;whiteSpace=wrap;overflow=hidden;rotatable=0;points=[[0,0.5],[1,0.5]];portConstraint=eastwest;" parent="KQqe6mfhrijCWGsZN7re-75" vertex="1">
          <mxGeometry y="52" width="290" height="26" as="geometry" />
        </mxCell>
        <mxCell id="KQqe6mfhrijCWGsZN7re-78" value="Transform" style="swimlane;html=1;fontStyle=0;childLayout=stackLayout;horizontal=1;startSize=26;fillColor=none;horizontalStack=0;resizeParent=1;resizeLast=0;collapsible=1;marginBottom=0;swimlaneFillColor=#ffffff;rounded=0;shadow=0;comic=0;labelBackgroundColor=none;strokeWidth=1;fontFamily=Verdana;fontSize=10;align=center;" parent="WIyWlLk6GJQsqaUBKTNV-1" vertex="1">
          <mxGeometry x="760" y="1440" width="150" height="20" as="geometry" />
        </mxCell>
        <mxCell id="KQqe6mfhrijCWGsZN7re-79" value="Account(ContactId) &amp;gt; Contact(AccountId)" style="text;html=1;align=center;verticalAlign=middle;resizable=0;points=[];autosize=1;strokeColor=none;fillColor=none;" parent="WIyWlLk6GJQsqaUBKTNV-1" vertex="1">
          <mxGeometry x="160" y="610" width="240" height="30" as="geometry" />
        </mxCell>
        <mxCell id="KQqe6mfhrijCWGsZN7re-80" value="Step1 - Account Default Step" style="text;html=1;align=center;verticalAlign=middle;resizable=0;points=[];autosize=1;strokeColor=none;fillColor=none;" parent="WIyWlLk6GJQsqaUBKTNV-1" vertex="1">
          <mxGeometry x="190" y="645" width="180" height="30" as="geometry" />
        </mxCell>
        <mxCell id="KQqe6mfhrijCWGsZN7re-81" value="Step2 - Contact Default Step" style="text;html=1;align=center;verticalAlign=middle;resizable=0;points=[];autosize=1;strokeColor=none;fillColor=none;" parent="WIyWlLk6GJQsqaUBKTNV-1" vertex="1">
          <mxGeometry x="190" y="670" width="180" height="30" as="geometry" />
        </mxCell>
        <mxCell id="KQqe6mfhrijCWGsZN7re-82" value="Step3 - Account Crossref Step" style="text;html=1;align=center;verticalAlign=middle;resizable=0;points=[];autosize=1;strokeColor=none;fillColor=none;" parent="WIyWlLk6GJQsqaUBKTNV-1" vertex="1">
          <mxGeometry x="190" y="700" width="180" height="30" as="geometry" />
        </mxCell>
        <mxCell id="KQqe6mfhrijCWGsZN7re-83" value="Source Contact Id" style="text;html=1;align=center;verticalAlign=middle;resizable=0;points=[];autosize=1;strokeColor=none;fillColor=none;" parent="WIyWlLk6GJQsqaUBKTNV-1" vertex="1">
          <mxGeometry x="380" y="700" width="120" height="30" as="geometry" />
        </mxCell>
        <mxCell id="KQqe6mfhrijCWGsZN7re-84" value="Account(AccountId)" style="text;html=1;align=center;verticalAlign=middle;resizable=0;points=[];autosize=1;strokeColor=none;fillColor=none;" parent="WIyWlLk6GJQsqaUBKTNV-1" vertex="1">
          <mxGeometry x="605" y="610" width="130" height="30" as="geometry" />
        </mxCell>
        <mxCell id="KQqe6mfhrijCWGsZN7re-85" value="Step1 - Account - Default Step" style="text;html=1;align=center;verticalAlign=middle;resizable=0;points=[];autosize=1;strokeColor=none;fillColor=none;" parent="WIyWlLk6GJQsqaUBKTNV-1" vertex="1">
          <mxGeometry x="580" y="650" width="180" height="30" as="geometry" />
        </mxCell>
        <mxCell id="KQqe6mfhrijCWGsZN7re-86" value="Step2 - Account - Crossref Step" style="text;html=1;align=center;verticalAlign=middle;resizable=0;points=[];autosize=1;strokeColor=none;fillColor=none;" parent="WIyWlLk6GJQsqaUBKTNV-1" vertex="1">
          <mxGeometry x="575" y="685" width="190" height="30" as="geometry" />
        </mxCell>
        <mxCell id="KQqe6mfhrijCWGsZN7re-87" value="Source Account Id&amp;nbsp;" style="text;html=1;align=center;verticalAlign=middle;resizable=0;points=[];autosize=1;strokeColor=none;fillColor=none;" parent="WIyWlLk6GJQsqaUBKTNV-1" vertex="1">
          <mxGeometry x="765.06" y="685" width="120" height="30" as="geometry" />
        </mxCell>
        <mxCell id="KQqe6mfhrijCWGsZN7re-88" value="Contract" style="text;html=1;align=center;verticalAlign=middle;resizable=0;points=[];autosize=1;strokeColor=none;fillColor=none;" parent="WIyWlLk6GJQsqaUBKTNV-1" vertex="1">
          <mxGeometry x="970" y="610" width="70" height="30" as="geometry" />
        </mxCell>
        <mxCell id="KQqe6mfhrijCWGsZN7re-89" value="Step1 -&amp;nbsp;ContractDefaultStep" style="text;html=1;align=center;verticalAlign=middle;resizable=0;points=[];autosize=1;strokeColor=none;fillColor=none;" parent="WIyWlLk6GJQsqaUBKTNV-1" vertex="1">
          <mxGeometry x="955" y="640" width="170" height="30" as="geometry" />
        </mxCell>
        <mxCell id="KQqe6mfhrijCWGsZN7re-90" style="edgeStyle=orthogonalEdgeStyle;rounded=0;orthogonalLoop=1;jettySize=auto;html=1;" parent="WIyWlLk6GJQsqaUBKTNV-1" source="KQqe6mfhrijCWGsZN7re-91" target="KQqe6mfhrijCWGsZN7re-25" edge="1">
          <mxGeometry relative="1" as="geometry" />
        </mxCell>
        <mxCell id="KQqe6mfhrijCWGsZN7re-91" value="ContractDefaultStep" style="swimlane;html=1;fontStyle=0;childLayout=stackLayout;horizontal=1;startSize=26;fillColor=none;horizontalStack=0;resizeParent=1;resizeLast=0;collapsible=1;marginBottom=0;swimlaneFillColor=#ffffff;rounded=0;shadow=0;comic=0;labelBackgroundColor=none;strokeWidth=1;fontFamily=Verdana;fontSize=10;align=center;" parent="WIyWlLk6GJQsqaUBKTNV-1" vertex="1">
          <mxGeometry x="267.5" y="1280" width="160" height="78" as="geometry" />
        </mxCell>
        <mxCell id="KQqe6mfhrijCWGsZN7re-92" value="Step2 -&amp;nbsp;UpdateStatusStep" style="text;html=1;align=center;verticalAlign=middle;resizable=0;points=[];autosize=1;strokeColor=none;fillColor=none;" parent="WIyWlLk6GJQsqaUBKTNV-1" vertex="1">
          <mxGeometry x="960" y="675" width="160" height="30" as="geometry" />
        </mxCell>
        <mxCell id="KQqe6mfhrijCWGsZN7re-93" value="Account" style="text;html=1;align=center;verticalAlign=middle;resizable=0;points=[];autosize=1;strokeColor=none;fillColor=none;" parent="WIyWlLk6GJQsqaUBKTNV-1" vertex="1">
          <mxGeometry x="360" y="420" width="70" height="30" as="geometry" />
        </mxCell>
        <mxCell id="KQqe6mfhrijCWGsZN7re-94" value="Case(AccountId, ContactId)" style="text;html=1;align=center;verticalAlign=middle;resizable=0;points=[];autosize=1;strokeColor=none;fillColor=none;" parent="WIyWlLk6GJQsqaUBKTNV-1" vertex="1">
          <mxGeometry x="585" y="420" width="170" height="30" as="geometry" />
        </mxCell>
        <mxCell id="KQqe6mfhrijCWGsZN7re-95" value="Contact(AccountId, CaseId)" style="text;html=1;align=center;verticalAlign=middle;resizable=0;points=[];autosize=1;strokeColor=none;fillColor=none;" parent="WIyWlLk6GJQsqaUBKTNV-1" vertex="1">
          <mxGeometry x="420" y="420" width="170" height="30" as="geometry" />
        </mxCell>
        <mxCell id="KQqe6mfhrijCWGsZN7re-96" value="Step1 - Account Default Step" style="text;html=1;align=center;verticalAlign=middle;resizable=0;points=[];autosize=1;strokeColor=none;fillColor=none;" parent="WIyWlLk6GJQsqaUBKTNV-1" vertex="1">
          <mxGeometry x="360" y="450" width="180" height="30" as="geometry" />
        </mxCell>
        <mxCell id="KQqe6mfhrijCWGsZN7re-97" value="Step2 - Contact Default Step" style="text;html=1;align=center;verticalAlign=middle;resizable=0;points=[];autosize=1;strokeColor=none;fillColor=none;" parent="WIyWlLk6GJQsqaUBKTNV-1" vertex="1">
          <mxGeometry x="360" y="480" width="180" height="30" as="geometry" />
        </mxCell>
        <mxCell id="KQqe6mfhrijCWGsZN7re-98" value="Step3 - Case Default Step" style="text;html=1;align=center;verticalAlign=middle;resizable=0;points=[];autosize=1;strokeColor=none;fillColor=none;" parent="WIyWlLk6GJQsqaUBKTNV-1" vertex="1">
          <mxGeometry x="360" y="510" width="160" height="30" as="geometry" />
        </mxCell>
        <mxCell id="KQqe6mfhrijCWGsZN7re-99" value="Step4 - Contact Crossref Step" style="text;html=1;align=center;verticalAlign=middle;resizable=0;points=[];autosize=1;strokeColor=none;fillColor=none;" parent="WIyWlLk6GJQsqaUBKTNV-1" vertex="1">
          <mxGeometry x="360" y="540" width="180" height="30" as="geometry" />
        </mxCell>
        <mxCell id="KQqe6mfhrijCWGsZN7re-100" style="edgeStyle=orthogonalEdgeStyle;rounded=0;orthogonalLoop=1;jettySize=auto;html=1;" parent="WIyWlLk6GJQsqaUBKTNV-1" source="KQqe6mfhrijCWGsZN7re-101" target="KQqe6mfhrijCWGsZN7re-36" edge="1">
          <mxGeometry relative="1" as="geometry">
            <Array as="points">
              <mxPoint x="250.06" y="1590" />
              <mxPoint x="170.06" y="1590" />
            </Array>
          </mxGeometry>
        </mxCell>
        <mxCell id="KQqe6mfhrijCWGsZN7re-101" value="EmptyKeysetIdMatcher" style="swimlane;html=1;fontStyle=0;childLayout=stackLayout;horizontal=1;startSize=26;fillColor=none;horizontalStack=0;resizeParent=1;resizeLast=0;collapsible=1;marginBottom=0;swimlaneFillColor=#ffffff;rounded=0;shadow=0;comic=0;labelBackgroundColor=none;strokeWidth=1;fontFamily=Verdana;fontSize=10;align=center;" parent="WIyWlLk6GJQsqaUBKTNV-1" vertex="1">
          <mxGeometry x="165.06" y="1633" width="200" height="78" as="geometry" />
        </mxCell>
        <mxCell id="KQqe6mfhrijCWGsZN7re-103" value="_transform(RecordDetail)&amp;nbsp;" style="text;html=1;strokeColor=none;fillColor=none;align=left;verticalAlign=top;spacingLeft=4;spacingRight=4;whiteSpace=wrap;overflow=hidden;rotatable=0;points=[[0,0.5],[1,0.5]];portConstraint=eastwest;" parent="KQqe6mfhrijCWGsZN7re-101" vertex="1">
          <mxGeometry y="26" width="200" height="26" as="geometry" />
        </mxCell>
        <mxCell id="KQqe6mfhrijCWGsZN7re-104" style="edgeStyle=orthogonalEdgeStyle;rounded=0;orthogonalLoop=1;jettySize=auto;html=1;" parent="WIyWlLk6GJQsqaUBKTNV-1" source="KQqe6mfhrijCWGsZN7re-105" target="KQqe6mfhrijCWGsZN7re-25" edge="1">
          <mxGeometry relative="1" as="geometry" />
        </mxCell>
        <mxCell id="KQqe6mfhrijCWGsZN7re-105" value="KnowledgeDefaultStep" style="swimlane;html=1;fontStyle=0;childLayout=stackLayout;horizontal=1;startSize=26;fillColor=none;horizontalStack=0;resizeParent=1;resizeLast=0;collapsible=1;marginBottom=0;swimlaneFillColor=#ffffff;rounded=0;shadow=0;comic=0;labelBackgroundColor=none;strokeWidth=1;fontFamily=Verdana;fontSize=10;align=center;" parent="WIyWlLk6GJQsqaUBKTNV-1" vertex="1">
          <mxGeometry x="452.5" y="1280" width="160" height="78" as="geometry" />
        </mxCell>
        <mxCell id="KQqe6mfhrijCWGsZN7re-106" style="edgeStyle=orthogonalEdgeStyle;rounded=0;orthogonalLoop=1;jettySize=auto;html=1;" parent="WIyWlLk6GJQsqaUBKTNV-1" source="KQqe6mfhrijCWGsZN7re-107" edge="1">
          <mxGeometry relative="1" as="geometry">
            <Array as="points">
              <mxPoint x="1217.44" y="1480" />
              <mxPoint x="1217.44" y="1480" />
            </Array>
            <mxPoint x="1217.530909090909" y="1460.0000000000005" as="targetPoint" />
          </mxGeometry>
        </mxCell>
        <mxCell id="KQqe6mfhrijCWGsZN7re-107" value="BaseRecordBuilder" style="swimlane;html=1;fontStyle=0;childLayout=stackLayout;horizontal=1;startSize=26;fillColor=none;horizontalStack=0;resizeParent=1;resizeLast=0;collapsible=1;marginBottom=0;swimlaneFillColor=#ffffff;rounded=0;shadow=0;comic=0;labelBackgroundColor=none;strokeWidth=1;fontFamily=Verdana;fontSize=10;align=center;" parent="WIyWlLk6GJQsqaUBKTNV-1" vertex="1">
          <mxGeometry x="1070" y="1530" width="295" height="20" as="geometry" />
        </mxCell>
        <mxCell id="KQqe6mfhrijCWGsZN7re-111" value="Transform" style="swimlane;html=1;fontStyle=0;childLayout=stackLayout;horizontal=1;startSize=26;fillColor=none;horizontalStack=0;resizeParent=1;resizeLast=0;collapsible=1;marginBottom=0;swimlaneFillColor=#ffffff;rounded=0;shadow=0;comic=0;labelBackgroundColor=none;strokeWidth=1;fontFamily=Verdana;fontSize=10;align=center;" parent="WIyWlLk6GJQsqaUBKTNV-1" vertex="1">
          <mxGeometry x="1142.5" y="1440" width="150" height="20" as="geometry" />
        </mxCell>
        <mxCell id="Do3SrfoLUROzpyFRrtVI-4" value="&lt;p style=&quot;margin:0px;margin-top:4px;text-align:center;&quot;&gt;&lt;i&gt;&amp;lt;&amp;lt;Interface&amp;gt;&amp;gt;&lt;/i&gt;&lt;br&gt;&lt;b&gt;RecordDetail&lt;/b&gt;&lt;/p&gt;&lt;hr size=&quot;1&quot;&gt;&lt;p style=&quot;margin:0px;margin-left:4px;&quot;&gt;+ record: Record&amp;lt;string, any&amp;gt;&lt;br&gt;+ sourceId: string&lt;/p&gt;&lt;p style=&quot;margin:0px;margin-left:4px;&quot;&gt;+ bodies?: Record&amp;lt;string, string&amp;gt;&lt;/p&gt;&lt;hr size=&quot;1&quot;&gt;&lt;p style=&quot;margin:0px;margin-left:4px;&quot;&gt;&lt;br&gt;&lt;/p&gt;" style="verticalAlign=top;align=left;overflow=fill;fontSize=12;fontFamily=Helvetica;html=1;" parent="WIyWlLk6GJQsqaUBKTNV-1" vertex="1">
          <mxGeometry x="-560" y="1780" width="190" height="90" as="geometry" />
        </mxCell>
        <mxCell id="L-BeHeg3JpJRG0hnVt9p-5" style="edgeStyle=orthogonalEdgeStyle;rounded=0;orthogonalLoop=1;jettySize=auto;html=1;" parent="WIyWlLk6GJQsqaUBKTNV-1" source="L-BeHeg3JpJRG0hnVt9p-2" target="KQqe6mfhrijCWGsZN7re-107" edge="1">
          <mxGeometry relative="1" as="geometry" />
        </mxCell>
        <mxCell id="L-BeHeg3JpJRG0hnVt9p-2" value="BinaryRecordBuilder" style="swimlane;html=1;fontStyle=0;childLayout=stackLayout;horizontal=1;startSize=26;fillColor=none;horizontalStack=0;resizeParent=1;resizeLast=0;collapsible=1;marginBottom=0;swimlaneFillColor=#ffffff;rounded=0;shadow=0;comic=0;labelBackgroundColor=none;strokeWidth=1;fontFamily=Verdana;fontSize=10;align=center;" parent="WIyWlLk6GJQsqaUBKTNV-1" vertex="1">
          <mxGeometry x="1012.5" y="1621" width="210" height="79" as="geometry" />
        </mxCell>
        <mxCell id="L-BeHeg3JpJRG0hnVt9p-11" value="_transform(RecordDetail)&amp;nbsp;" style="text;html=1;strokeColor=none;fillColor=none;align=left;verticalAlign=top;spacingLeft=4;spacingRight=4;whiteSpace=wrap;overflow=hidden;rotatable=0;points=[[0,0.5],[1,0.5]];portConstraint=eastwest;" parent="L-BeHeg3JpJRG0hnVt9p-2" vertex="1">
          <mxGeometry y="26" width="210" height="26" as="geometry" />
        </mxCell>
        <mxCell id="L-BeHeg3JpJRG0hnVt9p-13" value="generateBodiesName(bodies)&amp;nbsp;" style="text;html=1;strokeColor=none;fillColor=none;align=left;verticalAlign=top;spacingLeft=4;spacingRight=4;whiteSpace=wrap;overflow=hidden;rotatable=0;points=[[0,0.5],[1,0.5]];portConstraint=eastwest;" parent="L-BeHeg3JpJRG0hnVt9p-2" vertex="1">
          <mxGeometry y="52" width="210" height="26" as="geometry" />
        </mxCell>
        <mxCell id="L-BeHeg3JpJRG0hnVt9p-10" style="edgeStyle=orthogonalEdgeStyle;rounded=0;orthogonalLoop=1;jettySize=auto;html=1;" parent="WIyWlLk6GJQsqaUBKTNV-1" source="L-BeHeg3JpJRG0hnVt9p-8" target="KQqe6mfhrijCWGsZN7re-107" edge="1">
          <mxGeometry relative="1" as="geometry" />
        </mxCell>
        <mxCell id="L-BeHeg3JpJRG0hnVt9p-8" value="SimbleRecordBuilder" style="swimlane;html=1;fontStyle=0;childLayout=stackLayout;horizontal=1;startSize=26;fillColor=none;horizontalStack=0;resizeParent=1;resizeLast=0;collapsible=1;marginBottom=0;swimlaneFillColor=#ffffff;rounded=0;shadow=0;comic=0;labelBackgroundColor=none;strokeWidth=1;fontFamily=Verdana;fontSize=10;align=center;" parent="WIyWlLk6GJQsqaUBKTNV-1" vertex="1">
          <mxGeometry x="1262.5" y="1621" width="160" height="59" as="geometry" />
        </mxCell>
        <mxCell id="L-BeHeg3JpJRG0hnVt9p-12" value="_transform(RecordDetail)&amp;nbsp;" style="text;html=1;strokeColor=none;fillColor=none;align=left;verticalAlign=top;spacingLeft=4;spacingRight=4;whiteSpace=wrap;overflow=hidden;rotatable=0;points=[[0,0.5],[1,0.5]];portConstraint=eastwest;" parent="L-BeHeg3JpJRG0hnVt9p-8" vertex="1">
          <mxGeometry y="26" width="160" height="26" as="geometry" />
        </mxCell>
        <mxCell id="L-BeHeg3JpJRG0hnVt9p-26" value="ZIP" style="text;html=1;align=center;verticalAlign=middle;resizable=0;points=[];autosize=1;strokeColor=none;fillColor=none;" parent="WIyWlLk6GJQsqaUBKTNV-1" vertex="1">
          <mxGeometry x="1020" y="1739" width="40" height="30" as="geometry" />
        </mxCell>
        <mxCell id="L-BeHeg3JpJRG0hnVt9p-27" value="request.txt" style="text;html=1;align=center;verticalAlign=middle;resizable=0;points=[];autosize=1;strokeColor=none;fillColor=none;" parent="WIyWlLk6GJQsqaUBKTNV-1" vertex="1">
          <mxGeometry x="1029.06" y="1754" width="80" height="30" as="geometry" />
        </mxCell>
        <mxCell id="L-BeHeg3JpJRG0hnVt9p-28" value="file1.gif" style="text;html=1;align=center;verticalAlign=middle;resizable=0;points=[];autosize=1;strokeColor=none;fillColor=none;" parent="WIyWlLk6GJQsqaUBKTNV-1" vertex="1">
          <mxGeometry x="1029.06" y="1769" width="60" height="30" as="geometry" />
        </mxCell>
        <mxCell id="L-BeHeg3JpJRG0hnVt9p-29" value="file2.doc" style="text;html=1;align=center;verticalAlign=middle;resizable=0;points=[];autosize=1;strokeColor=none;fillColor=none;" parent="WIyWlLk6GJQsqaUBKTNV-1" vertex="1">
          <mxGeometry x="1027.44" y="1784" width="70" height="30" as="geometry" />
        </mxCell>
        <mxCell id="L-BeHeg3JpJRG0hnVt9p-38" value="Id, Name, Body" style="text;html=1;align=center;verticalAlign=middle;resizable=0;points=[];autosize=1;strokeColor=none;fillColor=none;" parent="WIyWlLk6GJQsqaUBKTNV-1" vertex="1">
          <mxGeometry x="-545" y="1935" width="110" height="30" as="geometry" />
        </mxCell>
        <mxCell id="L-BeHeg3JpJRG0hnVt9p-39" value="123, asd, htpps.salesf...{id/body}" style="text;html=1;align=center;verticalAlign=middle;resizable=0;points=[];autosize=1;strokeColor=none;fillColor=none;" parent="WIyWlLk6GJQsqaUBKTNV-1" vertex="1">
          <mxGeometry x="-545" y="1960" width="200" height="30" as="geometry" />
        </mxCell>
        <mxCell id="L-BeHeg3JpJRG0hnVt9p-40" value="field, value" style="text;html=1;align=center;verticalAlign=middle;resizable=0;points=[];autosize=1;strokeColor=none;fillColor=none;" parent="WIyWlLk6GJQsqaUBKTNV-1" vertex="1">
          <mxGeometry x="-375" y="1840" width="80" height="30" as="geometry" />
        </mxCell>
        <mxCell id="L-BeHeg3JpJRG0hnVt9p-41" value="&lt;p style=&quot;margin:0px;margin-top:4px;text-align:center;&quot;&gt;&lt;i&gt;&amp;lt;&amp;lt;Interface&amp;gt;&amp;gt;&lt;/i&gt;&lt;br&gt;&lt;b&gt;RecordResult&lt;/b&gt;&lt;/p&gt;&lt;hr size=&quot;1&quot;&gt;&lt;p style=&quot;margin:0px;margin-left:4px;&quot;&gt;+ record: Record&amp;lt;string, any&amp;gt;&lt;br&gt;+ sourceId: string&lt;/p&gt;&lt;p style=&quot;margin:0px;margin-left:4px;&quot;&gt;+ bodies?: Record&amp;lt;string, string&amp;gt;&lt;/p&gt;&lt;hr size=&quot;1&quot;&gt;&lt;p style=&quot;margin:0px;margin-left:4px;&quot;&gt;&lt;br&gt;&lt;/p&gt;" style="verticalAlign=top;align=left;overflow=fill;fontSize=12;fontFamily=Helvetica;html=1;" parent="WIyWlLk6GJQsqaUBKTNV-1" vertex="1">
          <mxGeometry x="1150" y="1720" width="190" height="90" as="geometry" />
        </mxCell>
        <mxCell id="L-BeHeg3JpJRG0hnVt9p-42" value="file1.gif, value" style="text;html=1;align=center;verticalAlign=middle;resizable=0;points=[];autosize=1;strokeColor=none;fillColor=none;" parent="WIyWlLk6GJQsqaUBKTNV-1" vertex="1">
          <mxGeometry x="1340" y="1784" width="100" height="30" as="geometry" />
        </mxCell>
        <mxCell id="L-BeHeg3JpJRG0hnVt9p-52" value="Text" style="text;html=1;align=center;verticalAlign=middle;resizable=0;points=[];autosize=1;strokeColor=none;fillColor=none;" parent="WIyWlLk6GJQsqaUBKTNV-1" vertex="1">
          <mxGeometry x="625" y="1355" width="50" height="30" as="geometry" />
        </mxCell>
      </root>
    </mxGraphModel>
  </diagram>
</mxfile>
